<svg id="Layer_1" data-name="Layer 1" xmlns="http://www.w3.org/2000/svg" viewBox="0 0 1000 1000"><defs><style>.cls-1{fill:#26b6b2;}.cls-11,.cls-2,.cls-7{fill:none;}.cls-2{stroke:#285995;stroke-linecap:round;stroke-linejoin:round;stroke-width:27px;}.cls-3{fill:#cdeaeb;}.cls-4{fill:#efd242;}.cls-5{fill:#efd244;}.cls-6{fill:#7c604e;}.cls-7{stroke:#5f4b39;}.cls-10,.cls-11,.cls-7{stroke-miterlimit:10;}.cls-11,.cls-7{stroke-width:63px;}.cls-10,.cls-8{fill:#efd240;}.cls-9{fill:#fff;}.cls-10{stroke:#efd242;}.cls-11{stroke:#5f4b3a;}</style></defs><title>logo</title><rect class="cls-1" width="1000" height="1000" rx="177.28"/><path class="cls-2" d="M326.23,474.21"/><path class="cls-3" d="M747.71,81.29H252.29A447.67,447.67,0,0,0,354.8,366.37L456.51,489.52a20.72,20.72,0,0,1,0,26.4L354.8,639.06A447.7,447.7,0,0,0,252.29,924.15H747.71A447.7,447.7,0,0,0,645.2,639.06L543.49,515.92a20.72,20.72,0,0,1,0-26.4L645.2,366.37A447.67,447.67,0,0,0,747.71,81.29Z"/><path class="cls-4" d="M505.65,181.63c2.58,3.57,4.83,7.13,7,10.69,1.08,1.79,2.14,3.57,3.12,5.35s2,3.56,3,5.35c3.83,7.13,7.22,14.25,10.37,21.38a370.33,370.33,0,0,1,15.64,42.78A419.61,419.61,0,0,1,555,310a339.68,339.68,0,0,1,5.4,42.77,262.38,262.38,0,0,1-1.14,42.77c-.74,7.13-1.66,14.26-2.68,21.39l-3.18,21.39c-1.08,7.13-2.09,14.25-3.22,21.38A215.39,215.39,0,0,1,545.5,481c-3.81,14.26-9.35,28.51-14.57,42.77s-9.74,28.52-12,42.77A161,161,0,0,0,517,588a125.78,125.78,0,0,0,1.15,21.39c2,14.26,6.9,28.51,13,42.77l4.53,10.69c1.51,3.57,3,7.13,4.42,10.7s2.71,7.13,3.94,10.69,2.28,7.13,3.18,10.69a119.52,119.52,0,0,1,3.49,21.39c.25,3.56.32,7.13.24,10.69s-.32,7.13-.55,10.7a280.43,280.43,0,0,1-6.29,42.77,253.9,253.9,0,0,1-13.78,42.77,219.26,219.26,0,0,1-10.46,21.39c-2,3.56-4.11,7.13-6.47,10.69A113.52,113.52,0,0,1,505.65,866a7.32,7.32,0,0,1-10.3,1,7.87,7.87,0,0,1-1-1,113.52,113.52,0,0,1-7.72-10.69c-2.36-3.56-4.47-7.13-6.47-10.69a219.26,219.26,0,0,1-10.46-21.39,253.9,253.9,0,0,1-13.78-42.77,280.43,280.43,0,0,1-6.29-42.77c-.23-3.57-.45-7.13-.55-10.7s0-7.13.24-10.69a119.52,119.52,0,0,1,3.49-21.39c.9-3.56,2-7.13,3.18-10.69s2.51-7.13,3.94-10.69,2.91-7.13,4.42-10.7l4.53-10.69c6.06-14.26,11-28.51,13-42.77A125.78,125.78,0,0,0,483,588,161,161,0,0,0,481,566.58c-2.23-14.25-6.73-28.51-12-42.77S458.31,495.3,454.5,481a215.39,215.39,0,0,1-4.68-21.39c-1.13-7.13-2.14-14.25-3.22-21.38l-3.18-21.39c-1-7.13-1.94-14.26-2.68-21.39a262.38,262.38,0,0,1-1.14-42.77A339.68,339.68,0,0,1,445,310a419.61,419.61,0,0,1,10.3-42.77,370.33,370.33,0,0,1,15.64-42.78c3.15-7.13,6.54-14.25,10.37-21.38.93-1.79,2-3.57,3-5.35s2-3.56,3.12-5.35c2.13-3.56,4.38-7.12,7-10.69a7,7,0,0,1,9.74-1.56A7.21,7.21,0,0,1,505.65,181.63Z"/><path class="cls-5" d="M543.49,489.52l101.71-96c66.26-62.57,102.51-141.18,102.51-222.33H252.29c0,81.15,36.25,159.76,102.51,222.33l101.71,96"/><path class="cls-6" d="M747.71,81.29h0m0,0A447.67,447.67,0,0,1,645.2,366.37L543.49,489.52a20.72,20.72,0,0,0,0,26.4L645.2,639.06A447.7,447.7,0,0,1,747.71,924.15H252.29A447.7,447.7,0,0,1,354.8,639.06L456.51,515.92a20.72,20.72,0,0,0,0-26.4L354.8,366.37A447.67,447.67,0,0,1,252.29,81.29H747.71m0-63H252.29a63,63,0,0,0-63,63,510.61,510.61,0,0,0,116.94,325.2l79.47,96.23-79.47,96.22A510.61,510.61,0,0,0,189.29,924.15a63,63,0,0,0,63,63H747.71a63,63,0,0,0,63-63A510.61,510.61,0,0,0,693.77,598.94L614.3,502.72l79.47-96.23A510.61,510.61,0,0,0,810.71,81.91v-.62a63,63,0,0,0-63-63Zm0,126Z"/><line class="cls-7" x1="189.08" y1="49" x2="810.05" y2="49"/><path class="cls-8" d="M354.8,823c-66.26,28.46-102.51,64.21-102.51,101.12H747.71c0-36.91-36.25-72.66-102.51-101.12"/><path class="cls-4" d="M354.82,823.08c-5.78,2.54-11.53,5.16-17.19,8s-11.25,5.76-16.74,8.87a228.24,228.24,0,0,0-31.28,21.24c-9.72,8-18.64,17.12-25.49,27.67s-11.29,22.77-11.28,35.33l-.55-.55L500,923.25l247.71.35-.55.55c0-12.56-4.39-24.86-11.28-35.33s-15.77-19.66-25.49-27.67a227.63,227.63,0,0,0-31.28-21.24q-8.24-4.67-16.74-8.87c-5.66-2.8-11.41-5.42-17.19-8l0-.1c5.79,2.52,11.55,5.12,17.23,7.9s11.28,5.71,16.79,8.81a227.71,227.71,0,0,1,31.42,21.13c9.77,8,18.79,17.08,25.69,27.7s11.41,22.92,11.43,35.63v.06H252.29l-.07-.06c0-12.71,4.48-25.11,11.43-35.63s15.92-19.71,25.69-27.7a227.71,227.71,0,0,1,31.42-21.13c5.51-3.1,11.12-6,16.79-8.81S349,825.5,354.78,823Z"/><polygon class="cls-9" points="653.19 211.61 657.29 225.53 668.79 216.68 663.93 230.35 678.43 229.95 666.46 238.15 678.43 246.35 663.93 245.95 668.79 259.62 657.29 250.77 653.19 264.69 649.09 250.77 637.59 259.62 642.46 245.95 627.95 246.35 639.92 238.15 627.95 229.95 642.46 230.35 637.59 216.68 649.09 225.53 653.19 211.61"/><ellipse class="cls-10" cx="500" cy="830.96" rx="157.29" ry="88.33"/><line class="cls-11" x1="188.52" y1="955.78" x2="809.48" y2="955.78"/></svg>
